<?xml version="1.0" standalone="no"?>
<!DOCTYPE svg PUBLIC "-//W3C//DTD SVG 20010904//EN"
 "http://www.w3.org/TR/2001/REC-SVG-20010904/DTD/svg10.dtd">
<svg version="1.0" xmlns="http://www.w3.org/2000/svg"
 width="500.000000pt" height="500.000000pt" viewBox="0 0 500.000000 500.000000"
 preserveAspectRatio="xMidYMid meet">

<g transform="translate(0.000000,500.000000) scale(0.100000,-0.100000)"
fill="#000000" stroke="none">
<path d="M2160 4230 c0 -6 16 -52 36 -103 20 -51 46 -121 59 -157 12 -36 43
-119 68 -185 25 -66 91 -244 147 -395 149 -403 184 -496 340 -915 78 -209 159
-427 180 -485 50 -138 269 -729 280 -755 5 -11 14 -37 20 -57 l12 -38 64 0 64
0 0 1539 0 1539 -72 6 c-149 13 -1198 18 -1198 6z"/>
<path d="M1084 4098 c-44 -50 -65 -101 -98 -238 -45 -187 -56 -454 -56 -1350
0 -1034 22 -1333 110 -1539 21 -48 55 -89 65 -79 3 2 4 730 3 1617 l-3 1613
-21 -24z"/>
<path d="M3941 2505 c0 -1453 1 -1568 16 -1540 16 30 21 45 49 160 45 184 64
614 64 1456 0 855 -22 1202 -86 1398 -45 136 -43 198 -43 -1474z"/>
<path d="M1617 3864 c-4 -4 -7 -699 -7 -1545 l0 -1537 48 -6 c26 -4 312 -9
636 -12 l589 -6 -7 29 c-4 15 -14 42 -21 58 -8 17 -37 93 -65 170 -29 77 -90
244 -137 370 -147 398 -244 659 -253 680 -8 18 -70 184 -245 660 -36 99 -70
189 -75 200 -12 28 -308 827 -329 889 l-18 51 -54 3 c-30 2 -58 0 -62 -4z"/>
</g>
</svg>
